<svg xmlns="http://www.w3.org/2000/svg" width="44" height="56" viewBox="0 0 44 56">
  <defs>
    <linearGradient id="spin1-a" x1="-.671%" x2="99.486%" y1="49.97%" y2="49.97%">
      <stop offset="0%" stop-color="#7D96D3"/>
      <stop offset="100%" stop-color="#D34242"/>
    </linearGradient>
    <linearGradient id="spin1-b" x1="-.283%" x2="100.199%" y1="50.13%" y2="50.13%">
      <stop offset="0%" stop-color="#7D96D3"/>
      <stop offset="100%" stop-color="#D34242"/>
    </linearGradient>
    <linearGradient id="spin1-c" x1=".107%" x2="100.06%" y1="49.849%" y2="49.849%">
      <stop offset="0%" stop-color="#7D96D3"/>
      <stop offset="100%" stop-color="#D34242"/>
    </linearGradient>
    <linearGradient id="spin1-d" x1=".363%" x2="99.847%" y1="50.071%" y2="50.071%">
      <stop offset="0%" stop-color="#7D96D3"/>
      <stop offset="100%" stop-color="#D34242"/>
    </linearGradient>
    <linearGradient id="spin1-e" x1=".225%" x2="100.035%" y1="50.338%" y2="50.338%">
      <stop offset="0%" stop-color="#7D96D3"/>
      <stop offset="100%" stop-color="#D34242"/>
    </linearGradient>
    <linearGradient id="spin1-f" x1=".111%" x2="100.613%" y1="49.963%" y2="49.963%">
      <stop offset="0%" stop-color="#7D96D3"/>
      <stop offset="100%" stop-color="#D34242"/>
    </linearGradient>
    <linearGradient id="spin1-g" x1=".189%" x2="100.379%" y1="50.149%" y2="50.149%">
      <stop offset="0%" stop-color="#7D96D3"/>
      <stop offset="100%" stop-color="#D34242"/>
    </linearGradient>
    <linearGradient id="spin1-h" x1="-.125%" x2="100.368%" y1="49.995%" y2="49.995%">
      <stop offset="0%" stop-color="#7D96D3"/>
      <stop offset="100%" stop-color="#D34242"/>
    </linearGradient>
    <linearGradient id="spin1-i" x1=".579%" x2="100.388%" y1="50.02%" y2="50.02%">
      <stop offset="0%" stop-color="#7D96D3"/>
      <stop offset="100%" stop-color="#D34242"/>
    </linearGradient>
    <linearGradient id="spin1-j" x1="-.226%" x2="99.777%" y1="49.78%" y2="49.78%">
      <stop offset="0%" stop-color="#7D96D3"/>
      <stop offset="100%" stop-color="#D34242"/>
    </linearGradient>
  </defs>
  <g fill="none">
    <polygon fill="url(#spin1-a)" points="17 18.675 14.7 8.875 21.7 .075 18.2 9.375 20 19.975"/>
    <polygon fill="url(#spin1-b)" points="11.2 29.275 2.3 34.075 .5 45.175 5 36.375 14.1 30.675"/>
    <polygon fill="url(#spin1-c)" points="22.8 20.075 29.4 12.475 40.6 12.975 31 15.575 23.5 23.275"/>
    <polygon fill="url(#spin1-d)" points="19.8 36.475 13.8 44.575 16.8 55.475 17.3 45.575 23.1 36.475"/>
    <polygon fill="url(#spin1-e)" points="27.4 21.275 35 17.275 43.6 20.075 35.3 19.875 26.9 23.575"/>
    <polygon fill="url(#spin1-f)" points="22.4 36.375 22.2 44.875 28.4 51.475 24.6 44.075 24.3 34.875"/>
    <polygon fill="url(#spin1-g)" points="20.3 21.575 21.6 11.575 31.3 5.875 24.7 13.375 22.7 23.875"/>
    <polygon fill="url(#spin1-h)" points="13.7 34.775 6.9 42.275 8.8 53.375 10.2 43.475 16.9 35.175"/>
    <path fill="url(#spin1-i)" d="M21.4,17.275 C27.4,17.275 32.4,23.175 32.4,29.275 C32.4,35.375 27.4,38.075 21.4,38.075 C15.4,38.075 7.8,30.275 9.1,24.375 C10.7,17.875 15.4,17.275 21.4,17.275 Z"/>
    <path fill="url(#spin1-j)" d="M7.3,14.275 C11.1,14.575 15.4,16.075 15.4,19.875 C15.4,23.675 12.3,26.675 8.6,26.675 C4.9,26.675 4.4,26.775 2.9,23.275 C1.1,18.975 2.2,13.875 7.3,14.275 Z"/>
  </g>
</svg>
